<svg xmlns="http://www.w3.org/2000/svg" width="1000" height="760" viewBox="0 0 1000 760" role="img" aria-labelledby="clinical-title" aria-describedby="clinical-desc"><title id="clinical-title">Fictional SOAP-note analogy for bounded memory checks</title><desc id="clinical-desc">Four fictional notes distinguish prompt-only hiding from editing active memory and comparing it with an independently built note. The analogy maps a note field to the selected memory unit, the active note to the edited state surface, and the note comparison to the named reference check. It is not measured clinical or deletion evidence.</desc><rect width="1000" height="760" fill="#FFFFFF"/><text x="500" y="22" font-family="Liberation Sans, Arial, sans-serif" font-size="22" font-weight="700" fill="#62676D" text-anchor="middle">FICTIONAL ANALOGY — NOT MEASURED EVIDENCE</text><rect x="20" y="34" width="420" height="282" rx="11" fill="#FCFCFB" stroke="#62676D" stroke-width="1.8"/><rect x="20" y="34" width="420" height="42" rx="11" fill="#EFF1F2"/><rect x="20" y="65" width="420" height="11" fill="#EFF1F2"/><text x="36" y="61" font-family="Liberation Sans, Arial, sans-serif" font-size="22" font-weight="700" fill="#171717" text-anchor="start">BEFORE CORRECTION</text><text x="36" y="96" font-family="Liberation Sans, Arial, sans-serif" font-size="21" font-weight="400" fill="#62676D" text-anchor="start">Patient: Mira Voss</text><text x="424" y="96" font-family="Liberation Sans, Arial, sans-serif" font-size="21" font-weight="700" fill="#2F805D" text-anchor="end">Allergy: latex</text><line x1="34" y1="108" x2="426" y2="108" stroke="#C8CFD5" stroke-width="1"/><rect x="34" y="115" width="392" height="39" rx="5" fill="#F8ECEA"/><text x="49" y="141" font-family="Liberation Sans, Arial, sans-serif" font-size="22" font-weight="700" fill="#A84B42" text-anchor="start">S</text><text x="82" y="140" font-family="Liberation Sans, Arial, sans-serif" font-size="21" font-weight="600" fill="#A84B42" text-anchor="start">Mother had breast cancer</text><rect x="34" y="162" width="392" height="39" rx="5" fill="#FFFFFF"/><text x="49" y="188" font-family="Liberation Sans, Arial, sans-serif" font-size="22" font-weight="700" fill="#62676D" text-anchor="start">O</text><text x="82" y="187" font-family="Liberation Sans, Arial, sans-serif" font-size="21" font-weight="400" fill="#62676D" text-anchor="start">Correction not yet applied</text><rect x="34" y="209" width="392" height="39" rx="5" fill="#F8ECEA"/><text x="49" y="235" font-family="Liberation Sans, Arial, sans-serif" font-size="22" font-weight="700" fill="#A84B42" text-anchor="start">A</text><text x="82" y="234" font-family="Liberation Sans, Arial, sans-serif" font-size="21" font-weight="600" fill="#A84B42" text-anchor="start">Family-history risk elevated</text><rect x="34" y="256" width="392" height="39" rx="5" fill="#F8ECEA"/><text x="49" y="282" font-family="Liberation Sans, Arial, sans-serif" font-size="22" font-weight="700" fill="#A84B42" text-anchor="start">P</text><text x="82" y="281" font-family="Liberation Sans, Arial, sans-serif" font-size="21" font-weight="600" fill="#A84B42" text-anchor="start">Early screening plan</text><rect x="560" y="34" width="420" height="282" rx="11" fill="#FCFCFB" stroke="#62676D" stroke-width="1.8"/><rect x="560" y="34" width="420" height="42" rx="11" fill="#EFF1F2"/><rect x="560" y="65" width="420" height="11" fill="#EFF1F2"/><text x="576" y="61" font-family="Liberation Sans, Arial, sans-serif" font-size="22" font-weight="700" fill="#171717" text-anchor="start">PROMPT-ONLY VIEW</text><text x="576" y="96" font-family="Liberation Sans, Arial, sans-serif" font-size="21" font-weight="400" fill="#62676D" text-anchor="start">Patient: Mira Voss</text><text x="964" y="96" font-family="Liberation Sans, Arial, sans-serif" font-size="21" font-weight="700" fill="#2F805D" text-anchor="end">Allergy: latex</text><line x1="574" y1="108" x2="966" y2="108" stroke="#C8CFD5" stroke-width="1"/><rect x="574" y="115" width="392" height="39" rx="5" fill="#F3F3F2"/><text x="589" y="141" font-family="Liberation Sans, Arial, sans-serif" font-size="22" font-weight="700" fill="#62676D" text-anchor="start">S</text><text x="622" y="140" font-family="Liberation Sans, Arial, sans-serif" font-size="21" font-weight="600" fill="#62676D" text-anchor="start">Hidden in current answer</text><line x1="624" y1="135" x2="953" y2="135" stroke="#62676D" stroke-width="5" stroke-linecap="round"/><rect x="574" y="162" width="392" height="39" rx="5" fill="#FFFFFF"/><text x="589" y="188" font-family="Liberation Sans, Arial, sans-serif" font-size="22" font-weight="700" fill="#62676D" text-anchor="start">O</text><text x="622" y="187" font-family="Liberation Sans, Arial, sans-serif" font-size="21" font-weight="400" fill="#62676D" text-anchor="start">Correction not yet applied</text><rect x="574" y="209" width="392" height="39" rx="5" fill="#F8ECEA"/><text x="589" y="235" font-family="Liberation Sans, Arial, sans-serif" font-size="22" font-weight="700" fill="#A84B42" text-anchor="start">A</text><text x="622" y="234" font-family="Liberation Sans, Arial, sans-serif" font-size="21" font-weight="600" fill="#A84B42" text-anchor="start">Family-history risk elevated</text><rect x="574" y="256" width="392" height="39" rx="5" fill="#F8ECEA"/><text x="589" y="282" font-family="Liberation Sans, Arial, sans-serif" font-size="22" font-weight="700" fill="#A84B42" text-anchor="start">P</text><text x="622" y="281" font-family="Liberation Sans, Arial, sans-serif" font-size="21" font-weight="600" fill="#A84B42" text-anchor="start">Early screening plan</text><path d="M869 137 C893 117, 931 117, 955 137 C931 157, 893 157, 869 137 Z" fill="none" stroke="#A84B42" stroke-width="2.2"/><circle cx="912" cy="137" r="10" fill="none" stroke="#A84B42" stroke-width="2.2"/><line x1="876" y1="109" x2="948" y2="165" stroke="#A84B42" stroke-width="4"/><rect x="20" y="372" width="420" height="282" rx="11" fill="#FCFCFB" stroke="#62676D" stroke-width="1.8"/><rect x="20" y="372" width="420" height="42" rx="11" fill="#EFF1F2"/><rect x="20" y="403" width="420" height="11" fill="#EFF1F2"/><text x="36" y="399" font-family="Liberation Sans, Arial, sans-serif" font-size="22" font-weight="700" fill="#171717" text-anchor="start">EDITED + RECOMPUTED</text><text x="36" y="434" font-family="Liberation Sans, Arial, sans-serif" font-size="21" font-weight="400" fill="#62676D" text-anchor="start">Patient: Mira Voss</text><text x="424" y="434" font-family="Liberation Sans, Arial, sans-serif" font-size="21" font-weight="700" fill="#2F805D" text-anchor="end">Allergy: latex</text><line x1="34" y1="446" x2="426" y2="446" stroke="#C8CFD5" stroke-width="1"/><rect x="34" y="453" width="392" height="39" rx="5" fill="#EDF7F1"/><text x="49" y="479" font-family="Liberation Sans, Arial, sans-serif" font-size="22" font-weight="700" fill="#2F805D" text-anchor="start">S</text><text x="82" y="478" font-family="Liberation Sans, Arial, sans-serif" font-size="21" font-weight="600" fill="#2F805D" text-anchor="start">Family-history entry removed</text><rect x="34" y="500" width="392" height="39" rx="5" fill="#EDF7F1"/><text x="49" y="526" font-family="Liberation Sans, Arial, sans-serif" font-size="22" font-weight="700" fill="#2F805D" text-anchor="start">O</text><text x="82" y="525" font-family="Liberation Sans, Arial, sans-serif" font-size="21" font-weight="600" fill="#2F805D" text-anchor="start">Benign lump — not cancer</text><rect x="34" y="547" width="392" height="39" rx="5" fill="#EDF4FA"/><text x="49" y="573" font-family="Liberation Sans, Arial, sans-serif" font-size="22" font-weight="700" fill="#3878B8" text-anchor="start">A</text><text x="82" y="572" font-family="Liberation Sans, Arial, sans-serif" font-size="21" font-weight="600" fill="#3878B8" text-anchor="start">Family-history risk recomputed</text><rect x="34" y="594" width="392" height="39" rx="5" fill="#EDF4FA"/><text x="49" y="620" font-family="Liberation Sans, Arial, sans-serif" font-size="22" font-weight="700" fill="#3878B8" text-anchor="start">P</text><text x="82" y="619" font-family="Liberation Sans, Arial, sans-serif" font-size="21" font-weight="600" fill="#3878B8" text-anchor="start">Plan recomputed</text><rect x="560" y="372" width="420" height="282" rx="11" fill="#FCFCFB" stroke="#725A9D" stroke-width="1.8"/><rect x="560" y="372" width="420" height="42" rx="11" fill="#F4F0FA"/><rect x="560" y="403" width="420" height="11" fill="#F4F0FA"/><text x="576" y="399" font-family="Liberation Sans, Arial, sans-serif" font-size="22" font-weight="700" fill="#725A9D" text-anchor="start">NAMED REFERENCE</text><text x="576" y="434" font-family="Liberation Sans, Arial, sans-serif" font-size="21" font-weight="400" fill="#62676D" text-anchor="start">Patient: Mira Voss</text><text x="964" y="434" font-family="Liberation Sans, Arial, sans-serif" font-size="21" font-weight="700" fill="#2F805D" text-anchor="end">Allergy: latex</text><line x1="574" y1="446" x2="966" y2="446" stroke="#C8CFD5" stroke-width="1"/><rect x="574" y="453" width="392" height="39" rx="5" fill="#EDF7F1"/><text x="589" y="479" font-family="Liberation Sans, Arial, sans-serif" font-size="22" font-weight="700" fill="#2F805D" text-anchor="start">S</text><text x="622" y="478" font-family="Liberation Sans, Arial, sans-serif" font-size="21" font-weight="600" fill="#2F805D" text-anchor="start">No cancer family-history entry</text><rect x="574" y="500" width="392" height="39" rx="5" fill="#EDF7F1"/><text x="589" y="526" font-family="Liberation Sans, Arial, sans-serif" font-size="22" font-weight="700" fill="#2F805D" text-anchor="start">O</text><text x="622" y="525" font-family="Liberation Sans, Arial, sans-serif" font-size="21" font-weight="600" fill="#2F805D" text-anchor="start">Benign lump — not cancer</text><rect x="574" y="547" width="392" height="39" rx="5" fill="#EDF4FA"/><text x="589" y="573" font-family="Liberation Sans, Arial, sans-serif" font-size="22" font-weight="700" fill="#3878B8" text-anchor="start">A</text><text x="622" y="572" font-family="Liberation Sans, Arial, sans-serif" font-size="21" font-weight="600" fill="#3878B8" text-anchor="start">Family-history risk recomputed</text><rect x="574" y="594" width="392" height="39" rx="5" fill="#EDF4FA"/><text x="589" y="620" font-family="Liberation Sans, Arial, sans-serif" font-size="22" font-weight="700" fill="#3878B8" text-anchor="start">P</text><text x="622" y="619" font-family="Liberation Sans, Arial, sans-serif" font-size="21" font-weight="600" fill="#3878B8" text-anchor="start">Plan recomputed</text><line x1="444" y1="170" x2="546" y2="170" stroke="#A84B42" stroke-width="2.3" stroke-dasharray="6 5"/><path d="M556 170 l-10 -6 v12 z" fill="#A84B42"/><text x="500" y="145" font-family="Liberation Sans, Arial, sans-serif" font-size="21" font-weight="700" fill="#A84B42" text-anchor="middle">HIDE</text><line x1="230" y1="318" x2="220" y2="368" stroke="#3878B8" stroke-width="2.3"/><path d="M230 368 l-10 -6 v12 z" fill="#3878B8"/><text x="255" y="337" font-family="Liberation Sans, Arial, sans-serif" font-size="21" font-weight="700" fill="#2F805D" text-anchor="start">REMOVE CARD</text><text x="255" y="357" font-family="Liberation Sans, Arial, sans-serif" font-size="21" font-weight="700" fill="#3878B8" text-anchor="start">OR REWIND + REPLAY</text><line x1="454" y1="514" x2="546" y2="514" stroke="#725A9D" stroke-width="2.3"/><path d="M556 514 l-10 -6 v12 z" fill="#725A9D"/><path d="M444 514 l10 -6 v12 z" fill="#725A9D"/><text x="500" y="489" font-family="Liberation Sans, Arial, sans-serif" font-size="21" font-weight="700" fill="#725A9D" text-anchor="middle">COMPARE</text><text x="500" y="686" font-family="Liberation Sans, Arial, sans-serif" font-size="21" font-weight="700" fill="#2F805D" text-anchor="middle">MATCH IN ILLUSTRATED CHECK</text><rect x="30" y="707" width="940" height="38" rx="19" fill="#EFF1F2" stroke="#C8CFD5" stroke-width="1.4"/><text x="500" y="731" font-family="Liberation Sans, Arial, sans-serif" font-size="21" font-weight="700" fill="#62676D" text-anchor="middle">OUTSIDE CHECK: prior outputs · actions · treatments · external logs</text></svg>
